<svg width="40" height="40" viewBox="0 0 40 40" fill="none" xmlns="http://www.w3.org/2000/svg">
<path d="M8.98125 26.1125C13.3179 26.3711 14.2446 26.2773 14.2446 27.0453C14.2446 28.6078 8.39196 28.6125 8.39196 27.1641C8.39286 26.7664 8.68571 26.4297 8.98125 26.1125ZM11.4768 17C8.59375 17 8.46339 20.4742 11.4098 20.4742C14.3125 20.4742 14.2411 17 11.4768 17ZM40 6.25V33.75C40 34.7446 39.5485 35.6984 38.7447 36.4016C37.941 37.1049 36.8509 37.5 35.7143 37.5H4.28571C3.14907 37.5 2.05898 37.1049 1.25526 36.4016C0.451529 35.6984 0 34.7446 0 33.75L0 6.25C0 5.25544 0.451529 4.30161 1.25526 3.59835C2.05898 2.89509 3.14907 2.5 4.28571 2.5H35.7143C36.8509 2.5 37.941 2.89509 38.7447 3.59835C39.5485 4.30161 40 5.25544 40 6.25ZM19.7321 11.6648C19.7321 12.7969 20.4804 13.4523 21.7732 13.4523C23.0893 13.4523 23.8384 12.7969 23.8384 11.6648C23.8384 10.5328 23.0911 9.92188 21.775 9.92188C20.4821 9.92188 19.7321 10.5344 19.7321 11.6648ZM17.7839 15.2344H13.3598C11.1277 14.7227 6.07768 14.8555 6.07768 18.8867C6.07768 20.3555 6.91696 21.3867 8.02857 21.8641C6.62768 22.9867 5.96429 23.5156 5.96429 24.2656C5.96429 24.8023 6.21339 25.2984 6.9625 25.575C6.16786 26.2312 5.7125 26.7062 5.7125 27.6C5.71429 29.168 7.27946 30.0781 11.3857 30.0781C15.3339 30.0781 17.6241 28.7883 17.6241 26.5055C17.6241 23.6406 15.1036 23.7461 9.1625 23.4289L9.91071 22.3797C11.4286 22.75 16.5348 22.8664 16.5348 19.0648C16.5348 18.1516 16.1036 17.5164 15.6955 17.0594L17.783 16.9203L17.7839 15.2344ZM25.3143 23.8156L24.1536 23.6766C23.8125 23.6367 23.7902 23.5984 23.7902 23.2789V15.0406H19.0938L18.8446 16.6477C20.2509 17.0813 20.3625 17.0273 20.3625 17.4422V23.2812C20.3625 23.7203 20.3348 23.6391 18.8446 23.818V25.3852H25.3107L25.3143 23.8156ZM34.2857 24.6094L33.6723 22.8617C30.0179 24.0625 30.2929 21.8922 30.2929 21.5547V16.8109H33.6723V14.8258H30.4741C30.2179 14.8258 30.2955 15.0227 30.2955 11.8078H28.1366C27.8875 13.9719 27.0938 14.8453 25.1009 15.0437V16.8109C26.9286 16.8109 26.8705 16.7445 26.8705 17.0094V22.2102C26.8705 24.4539 27.8911 25.4062 30.5911 25.4062C31.8813 25.4062 33.3098 25.0289 34.2857 24.6094Z" fill="#8B5201"/>
</svg>
