<svg width="40" height="40" viewBox="0 0 40 40" fill="none" xmlns="http://www.w3.org/2000/svg">
<path d="M5 11.25C5 9.5924 5.65848 8.00269 6.83058 6.83058C8.00269 5.65848 9.5924 5 11.25 5H28.75C30.4076 5 31.9973 5.65848 33.1694 6.83058C34.3415 8.00269 35 9.5924 35 11.25V28.75C35 30.4076 34.3415 31.9973 33.1694 33.1694C31.9973 34.3415 30.4076 35 28.75 35H11.25C9.5924 35 8.00269 34.3415 6.83058 33.1694C5.65848 31.9973 5 30.4076 5 28.75V11.25ZM18.75 15C18.4185 15 18.1005 15.1317 17.8661 15.3661C17.6317 15.6005 17.5 15.9185 17.5 16.25V26.25C17.5 26.5815 17.3683 26.8995 17.1339 27.1339C16.8995 27.3683 16.5815 27.5 16.25 27.5H13.75C13.4185 27.5 13.1005 27.6317 12.8661 27.8661C12.6317 28.1005 12.5 28.4185 12.5 28.75C12.5 29.0815 12.6317 29.3995 12.8661 29.6339C13.1005 29.8683 13.4185 30 13.75 30H16.25C17.2446 30 18.1984 29.6049 18.9017 28.9017C19.6049 28.1984 20 27.2446 20 26.25V16.25C20 15.9185 19.8683 15.6005 19.6339 15.3661C19.3995 15.1317 19.0815 15 18.75 15ZM21.25 18.75V20C21.25 20.9946 21.6451 21.9484 22.3483 22.6517C23.0516 23.3549 24.0054 23.75 25 23.75H26.25C26.5815 23.75 26.8995 23.8817 27.1339 24.1161C27.3683 24.3505 27.5 24.6685 27.5 25V26.25C27.5 26.5815 27.3683 26.8995 27.1339 27.1339C26.8995 27.3683 26.5815 27.5 26.25 27.5H22.5C22.1685 27.5 21.8505 27.6317 21.6161 27.8661C21.3817 28.1005 21.25 28.4185 21.25 28.75C21.25 29.0815 21.3817 29.3995 21.6161 29.6339C21.8505 29.8683 22.1685 30 22.5 30H26.25C27.2446 30 28.1984 29.6049 28.9017 28.9017C29.6049 28.1984 30 27.2446 30 26.25V25C30 24.0054 29.6049 23.0516 28.9017 22.3483C28.1984 21.6451 27.2446 21.25 26.25 21.25H25C24.6685 21.25 24.3505 21.1183 24.1161 20.8839C23.8817 20.6495 23.75 20.3315 23.75 20V18.75C23.75 18.4185 23.8817 18.1005 24.1161 17.8661C24.3505 17.6317 24.6685 17.5 25 17.5H28.75C29.0815 17.5 29.3995 17.3683 29.6339 17.1339C29.8683 16.8995 30 16.5815 30 16.25C30 15.9185 29.8683 15.6005 29.6339 15.3661C29.3995 15.1317 29.0815 15 28.75 15H25C24.0054 15 23.0516 15.3951 22.3483 16.0983C21.6451 16.8016 21.25 17.7554 21.25 18.75Z" fill="#8B5201"/>
</svg>
