<svg width="40" height="40" viewBox="0 0 40 40" fill="none" xmlns="http://www.w3.org/2000/svg">
<g clip-path="url(#clip0_13_12)">
<path d="M18.8651 27.6825C18.8463 27.72 18.8276 27.75 18.8651 27.6825V27.6825ZM34.4351 22.245C33.1776 22.245 31.9376 22.5325 30.8101 23.0887C30.4413 22.345 30.0601 21.695 29.9976 21.2075C29.9226 20.6387 29.8413 20.3012 29.9288 19.6262C30.0163 18.9512 30.4101 17.995 30.4038 17.9262C30.3976 17.8575 30.3163 17.5137 29.5101 17.5075C28.7038 17.5012 28.0101 17.6637 27.9288 17.8762C27.7862 18.2645 27.6754 18.6637 27.5976 19.07C27.4538 19.8012 25.9863 22.4137 25.1551 23.7762C24.8801 23.245 24.6488 22.7762 24.5988 22.4012C24.5238 21.8325 24.4426 21.495 24.5301 20.82C24.6176 20.145 25.0113 19.1887 25.0051 19.12C24.9988 19.0512 24.9176 18.7075 24.1126 18.7012C23.3076 18.695 22.6126 18.8575 22.5313 19.07C22.4501 19.2825 22.3626 19.7825 22.2001 20.2637C22.0376 20.745 20.0813 25.095 19.5701 26.2262C19.3076 26.8012 19.0826 27.2637 18.9201 27.5762C18.8951 27.6262 18.8763 27.6575 18.8638 27.6825C18.8826 27.6512 18.8951 27.62 18.8951 27.6325C18.7576 27.9012 18.6763 28.0512 18.6763 28.0512V28.0575C18.5701 28.2575 18.4513 28.4387 18.3951 28.4387C18.3576 28.4387 18.2763 27.9137 18.4138 27.195C18.7076 25.6825 19.4013 23.3325 19.3951 23.2512C19.3888 23.2075 19.5263 22.8012 18.9388 22.5825C18.3701 22.3762 18.1638 22.72 18.1138 22.72C18.0638 22.72 18.0263 22.845 18.0263 22.845C18.0263 22.845 18.6576 20.195 16.8138 20.195C15.6638 20.195 14.0638 21.4575 13.2776 22.6012C12.7838 22.87 11.7151 23.4512 10.5901 24.07L9.29634 24.7825C9.26509 24.7512 9.24009 24.72 9.20884 24.6887C6.97134 22.3012 2.84134 20.6137 3.01634 17.4075C3.07884 16.2387 3.48509 13.17 10.9588 9.44498C17.0838 6.39498 21.9801 7.23248 22.8238 9.09498C24.0363 11.7512 20.2051 16.695 13.8451 17.4075C11.4201 17.6762 10.1463 16.7387 9.82759 16.3887C9.49634 16.02 9.44634 16.0012 9.32134 16.07C9.11509 16.1825 9.24634 16.5075 9.32134 16.7012C9.50884 17.195 10.2901 18.07 11.6213 18.5075C12.7901 18.8887 15.6326 19.1012 19.0688 17.77C22.9301 16.2825 25.9363 12.1387 25.0538 8.66998C24.1563 5.14498 18.3113 3.98873 12.7851 5.95123C9.49134 7.11998 5.93009 8.95748 3.36884 11.3512C0.325092 14.2012 -0.161158 16.6825 0.0388421 17.72C0.751342 21.4012 5.82509 23.8012 7.85509 25.5762L7.57384 25.7325C6.55509 26.2387 2.68759 28.2637 1.71884 30.4012C0.625092 32.8262 1.90009 34.5637 2.73634 34.8012C5.34884 35.5262 8.02259 34.22 9.46009 32.0762C10.8976 29.9325 10.7226 27.1325 10.0601 25.8575C10.0538 25.8387 10.0413 25.8262 10.0351 25.8075C10.7851 25.3633 11.5414 24.9299 12.3038 24.5075C12.0538 25.1825 11.8726 25.995 11.7788 27.17C11.6663 28.545 12.2351 30.3262 12.9726 31.0262C13.2976 31.3325 13.6901 31.3387 13.9351 31.3387C14.7976 31.3387 15.1851 30.6262 15.6163 29.7762C16.1476 28.7387 16.6163 27.5325 16.6163 27.5325C16.6163 27.5325 16.0288 30.795 17.6351 30.795C18.2226 30.795 18.8101 30.0387 19.0726 29.6512V29.6575C19.0726 29.6575 19.0851 29.6325 19.1163 29.5825C19.1788 29.4887 19.2101 29.4325 19.2101 29.4325V29.4137C19.4476 29.0075 19.9663 28.0762 20.7476 26.5387C21.7601 24.5512 22.7276 22.07 22.7276 22.07C22.8213 22.615 22.9513 23.1537 23.1151 23.6825C23.2901 24.2762 23.6588 24.9262 23.9526 25.5575C23.7151 25.8825 23.5713 26.07 23.5713 26.07C23.5713 26.075 23.5738 26.0787 23.5776 26.0825C23.3901 26.3325 23.1776 26.6012 22.9588 26.8637C22.1601 27.8137 21.2088 28.9012 21.0838 29.2137C20.9338 29.5825 20.9713 29.8575 21.2588 30.07C21.4713 30.2325 21.8463 30.2575 22.2401 30.2262C22.9588 30.1762 23.4651 30.0012 23.7088 29.8887C24.1584 29.7276 24.5833 29.5047 24.9713 29.2262C25.7526 28.6512 26.2276 27.8262 26.1838 26.7387C26.1588 26.1387 25.9651 25.5387 25.7276 24.9762C25.7963 24.8762 25.8713 24.77 25.9401 24.6637C26.7534 23.4502 27.4862 22.1845 28.1338 20.875C28.2276 21.42 28.3563 21.9587 28.5213 22.4875C28.6713 22.9937 28.9651 23.55 29.2338 24.0937C28.0713 25.0375 27.3526 26.1312 27.1038 26.85C26.6413 28.1812 27.0038 28.7812 27.6851 28.9187C27.9913 28.9812 28.4288 28.8375 28.7538 28.7C29.2363 28.5387 29.6913 28.305 30.1026 28.0062C30.8838 27.4312 31.6401 26.625 31.5888 25.5312C31.5701 25.0375 31.4326 24.5437 31.2513 24.0687C32.2326 23.6562 33.5076 23.4312 35.1326 23.6187C38.6126 24.025 39.2938 26.2 39.1626 27.1062C39.0313 28.0125 38.3001 28.5187 38.0563 28.6687C37.8126 28.8187 37.7376 28.875 37.7563 28.9875C37.7876 29.15 37.9001 29.1437 38.1063 29.1062C38.3938 29.0562 39.9313 28.3687 40.0001 26.6875C40.1001 24.5625 38.0563 22.225 34.4376 22.2437L34.4351 22.245ZM7.61134 31.2887C6.46134 32.545 4.85009 33.02 4.15634 32.62C3.41259 32.1875 3.70634 30.3387 5.12384 29C5.98634 28.1875 7.09884 27.4375 7.83634 26.975C8.00509 26.875 8.24884 26.725 8.54884 26.5437C8.57322 26.5281 8.59824 26.5135 8.62384 26.5C8.68009 26.4625 8.74259 26.4312 8.80509 26.3937C9.32259 28.2937 8.82384 29.9687 7.61134 31.2875V31.2887ZM16.0088 25.5762C15.6088 26.5575 14.7663 29.0575 14.2526 28.9262C13.8151 28.8137 13.5463 26.9075 14.1651 25.0325C14.4776 24.0887 15.1401 22.9637 15.5338 22.5262C16.1651 21.82 16.8588 21.595 17.0213 21.8762C17.2401 22.245 16.2588 24.9637 16.0088 25.5762ZM22.9463 28.8887C22.7776 28.9762 22.6213 29.0325 22.5463 28.9887C22.4901 28.9575 22.6151 28.8387 22.6151 28.8387C22.6151 28.8387 23.4838 27.9075 23.8276 27.4825C24.0276 27.2325 24.2588 26.9387 24.5088 26.6137C24.5088 26.645 24.5151 26.6762 24.5151 26.7137C24.5076 27.8325 23.4326 28.5887 22.9451 28.8887H22.9463ZM28.2963 27.67C28.1713 27.5825 28.1901 27.2887 28.6088 26.3762C28.7713 26.02 29.1463 25.42 29.7963 24.845C29.8701 25.0625 29.9101 25.29 29.9151 25.52C29.9088 26.9262 28.9026 27.4512 28.2963 27.67Z" fill="#8B5201"/>
</g>
<defs>
<clipPath id="clip0_13_12">
<rect width="40" height="40" rx="10" fill="white"/>
</clipPath>
</defs>
</svg>
