<svg width="40" height="40" viewBox="0 0 40 40" fill="none" xmlns="http://www.w3.org/2000/svg">
<path d="M35.4844 10.0937L20.4844 3.84373C20.1736 3.71859 19.8264 3.71859 19.5156 3.84373L4.51562 10.0937C4.2632 10.2034 4.05342 10.3925 3.91808 10.6321C3.78274 10.8718 3.72922 11.149 3.76562 11.4219L6.26562 30.1719C6.29299 30.373 6.36831 30.5645 6.48525 30.7304C6.60218 30.8963 6.75729 31.0316 6.9375 31.125L19.4375 37.375C19.6136 37.4573 19.8056 37.5 20 37.5C20.1944 37.5 20.3864 37.4573 20.5625 37.375L33.0625 31.125C33.2427 31.0316 33.3978 30.8963 33.5148 30.7304C33.6317 30.5645 33.707 30.373 33.7344 30.1719L36.2344 11.4219C36.2708 11.149 36.2173 10.8718 36.0819 10.6321C35.9466 10.3925 35.7368 10.2034 35.4844 10.0937ZM26.1875 26.125C26.0101 26.2034 25.8189 26.2459 25.625 26.25C25.3924 26.2498 25.1644 26.1856 24.9659 26.0643C24.7674 25.943 24.6062 25.7694 24.5 25.5625L23.1875 22.9219H16.8125L15.5 25.5625C15.3508 25.8608 15.0892 26.0877 14.7727 26.1932C14.4563 26.2987 14.1109 26.2742 13.8125 26.125C13.5141 25.9758 13.2872 25.7142 13.1818 25.3977C13.0763 25.0813 13.1008 24.7358 13.25 24.4375L18.875 13.1875C18.9815 12.9809 19.1428 12.8076 19.3412 12.6866C19.5397 12.5657 19.7676 12.5017 20 12.5017C20.2324 12.5017 20.4603 12.5657 20.6588 12.6866C20.8572 12.8076 21.0185 12.9809 21.125 13.1875L26.75 24.4375C26.893 24.7369 26.9142 25.08 26.8093 25.3947C26.7044 25.7095 26.4815 25.9713 26.1875 26.125ZM20 16.5469L21.9375 20.4219H18.0625L20 16.5469Z" fill="#8B5201"/>
</svg>
