<svg width="40" height="40" viewBox="0 0 40 40" fill="none" xmlns="http://www.w3.org/2000/svg">
<path d="M15.9375 17.8125V11.645H20.3875C22.82 11.645 24.2425 12.7875 24.2425 14.7375C24.2425 16.7425 22.7325 17.8125 19.8325 17.8125H15.9375ZM15.9375 27.2175H20.6825C23.6425 27.2175 25.2075 26.0175 25.2075 23.775C25.2075 21.5625 23.5825 20.405 20.4925 20.405H15.9375V27.2175Z" fill="#8B5201"/>
<path d="M10.005 0C7.35286 0 4.80932 1.05357 2.93395 2.92893C1.05859 4.8043 0.00502205 7.34784 0.00502205 10V30C0.00502205 32.6522 1.05859 35.1957 2.93395 37.0711C4.80932 38.9464 7.35286 40 10.005 40H30.005C32.6572 40 35.2007 38.9464 37.0761 37.0711C38.9515 35.1957 40.005 32.6522 40.005 30V10C40.005 7.34784 38.9515 4.8043 37.0761 2.92893C35.2007 1.05357 32.6572 0 30.005 0L10.005 0ZM12.655 30V8.8625H21.1525C25.12 8.8625 27.51 10.885 27.51 14.1375C27.51 16.3475 25.885 18.325 23.8025 18.6775V18.9275C26.66 19.22 28.5625 21.255 28.5625 24.01C28.5625 27.73 25.8525 30 21.3425 30H12.655Z" fill="#8B5201"/>
</svg>
