<svg width="40" height="40" viewBox="0 0 40 40" fill="none" xmlns="http://www.w3.org/2000/svg">
<g clip-path="url(#clip0_722_2)">
<path d="M40 30.98C39.4179 31.2002 38.7752 31.1997 38.1934 30.9787C37.6116 30.7576 37.1308 30.3312 36.8417 29.78L31.0917 21.8284L30.2584 20.7167L23.5867 29.79C23.315 30.3181 22.8603 30.7292 22.3075 30.9463C21.7548 31.1635 21.1419 31.1719 20.5834 30.97L29.18 19.4367L21.1834 9.01835C21.7583 8.81114 22.3872 8.8084 22.964 9.01057C23.5407 9.21275 24.0302 9.6075 24.35 10.1284L30.31 18.1784L36.3034 10.1617C36.5771 9.643 37.032 9.243 37.5814 9.03773C38.1308 8.83247 38.7365 8.83625 39.2834 9.04835L36.18 13.1667L31.9767 18.6384C31.86 18.7425 31.7665 18.8701 31.7026 19.0129C31.6386 19.1556 31.6056 19.3103 31.6056 19.4667C31.6056 19.6231 31.6386 19.7778 31.7026 19.9205C31.7665 20.0633 31.86 20.1909 31.9767 20.295L39.9834 30.9817L40 30.98ZM0.00335333 19.2934L0.703353 15.835C2.62669 8.99669 10.4667 6.15169 15.86 10.385C19.0184 12.8667 19.8067 16.38 19.6517 20.34H1.86002C1.57169 27.4117 6.67502 31.6817 13.2 29.5C14.2578 29.1193 15.2046 28.4821 15.9556 27.6455C16.7066 26.809 17.2384 25.7992 17.5034 24.7067C17.8484 23.5967 18.4167 23.4067 19.46 23.7267C19.2862 25.0807 18.8075 26.3776 18.0601 27.5199C17.3127 28.6622 16.316 29.6201 15.145 30.3217C13.2107 31.3797 10.9914 31.7991 8.80439 31.5198C6.61739 31.2405 4.57468 30.2769 2.96835 28.7667C1.38007 26.979 0.420147 24.7208 0.23502 22.3367C0.23502 21.945 0.101687 21.5784 0.0116867 21.2267C0.00357338 20.5828 -0.000315595 19.9389 1.99938e-05 19.295L0.00335333 19.2934ZM1.88169 18.8167H17.9717C17.8717 13.69 14.6367 10.0534 10.3217 10.02C5.51835 9.95335 2.08169 13.51 1.87002 18.7934L1.88169 18.8167Z" fill="#8B5201"/>
</g>
<defs>
<clipPath id="clip0_722_2">
<rect width="40" height="40" fill="white"/>
</clipPath>
</defs>
</svg>
