<svg width="40" height="40" viewBox="0 0 40 40" fill="none" xmlns="http://www.w3.org/2000/svg">
<g clip-path="url(#clip0_13_31)">
<path d="M20 20.0003C20 11.114 33.3338 11.114 33.3338 20.0003C33.3338 28.8865 20 28.8865 20 20.0003ZM6.66626 33.334C6.66577 32.4585 6.83786 31.5914 7.17269 30.7824C7.50753 29.9734 7.99854 29.2383 8.61766 28.6192C9.23678 28.0001 9.97185 27.509 10.7809 27.1742C11.5899 26.8394 12.4569 26.6673 13.3325 26.6678H19.9988V33.334C19.9988 42.2203 6.66501 42.2203 6.66501 33.334H6.66626ZM20 0.000274494V13.334H26.6663C35.5525 13.334 35.5525 0.000274494 26.6663 0.000274494H20ZM6.66626 6.66652C6.66577 7.54209 6.83786 8.40916 7.17269 9.21817C7.50753 10.0272 7.99854 10.7623 8.61766 11.3814C9.23678 12.0005 9.97185 12.4915 10.7809 12.8263C11.5899 13.1612 12.4569 13.3333 13.3325 13.3328H19.9988V-0.000975506H13.3325C12.4569 -0.00146846 11.5899 0.170623 10.7809 0.505459C9.97185 0.840294 9.23678 1.33131 8.61766 1.95042C7.99854 2.56954 7.50753 3.30462 7.17269 4.11363C6.83786 4.92264 6.66577 5.78971 6.66626 6.66527V6.66652ZM6.66626 20.0003C6.66577 20.8758 6.83786 21.7429 7.17269 22.5519C7.50753 23.3609 7.99854 24.096 8.61766 24.7151C9.23678 25.3342 9.97185 25.8253 10.7809 26.1601C11.5899 26.4949 12.4569 26.667 13.3325 26.6665H19.9988V13.3328H13.3325C12.4569 13.3323 11.5899 13.5044 10.7809 13.8392C9.97185 14.174 9.23678 14.6651 8.61766 15.2842C7.99854 15.9033 7.50753 16.6384 7.17269 17.4474C6.83786 18.2564 6.66577 19.1235 6.66626 19.999V20.0003Z" fill="#8B5201"/>
</g>
<defs>
<clipPath id="clip0_13_31">
<rect width="40" height="40" rx="10" fill="white"/>
</clipPath>
</defs>
</svg>
