<svg width="40" height="40" viewBox="0 0 40 40" fill="none" xmlns="http://www.w3.org/2000/svg">
<path d="M40 10.3785V32.3077C40 34.3478 39.3415 36.3044 38.1694 37.747C36.9973 39.1896 35.4076 40 33.75 40H6.25C4.5924 40 3.00269 39.1896 1.83058 37.747C0.65848 36.3044 0 34.3478 0 32.3077V10.3785L19.365 24.4031C19.5574 24.5427 19.7767 24.6164 20 24.6164C20.2233 24.6164 20.4426 24.5427 20.635 24.4031L40 10.3785ZM33.75 9.5239e-08C35.2879 -0.000297588 36.7718 0.697251 37.918 1.9592C39.0642 3.22115 39.7921 4.9589 39.9625 6.84L20 21.2923L0.0375003 6.84C0.207896 4.9589 0.93581 3.22115 2.08199 1.9592C3.22816 0.697251 4.71213 -0.000297588 6.25 9.5239e-08H33.75Z" fill="#CB7A04"/>
</svg>
