<svg width="40" height="40" viewBox="0 0 40 40" fill="none" xmlns="http://www.w3.org/2000/svg">
<path d="M28.6325 15.866C26.53 6.59473 21.5625 3.55473 21.0288 2.38973C20.4425 1.56348 19.8113 0.000976562 19.8113 0.000976562C19.805 0.0334766 19.805 0.0534766 19.7988 0.0859766V0.105977C19.7988 0.132227 19.7925 0.144727 19.7925 0.170977V0.197227H19.7863V0.280977H19.78C19.78 0.293477 19.78 0.313477 19.7738 0.319727V0.358477C19.7738 0.370977 19.7738 0.384727 19.7675 0.390977V0.423477C19.7675 0.443477 19.7675 0.462227 19.7613 0.475977V0.482227C19.7602 0.510927 19.756 0.539424 19.7488 0.567227V0.579727C19.7425 0.585977 19.7425 0.592227 19.7425 0.599727V0.625977H19.7363V0.664727H19.73V0.690977H19.7175V0.729727H19.7113V0.762227H19.705V0.788477H19.6988V0.814727H19.6925V0.840977H19.6863V0.867227H19.68V0.887227H19.6738V0.913477H19.6675V0.939727H19.6613C19.655 0.939727 19.655 0.945977 19.655 0.945977V0.958477L19.6488 0.970977C19.6488 0.983477 19.6425 0.997227 19.6363 1.00973C19.63 1.01598 19.63 1.01598 19.63 1.02223V1.03473H19.6238V1.04723H19.6113V1.07973H19.5988V1.09973H19.5925V1.10598H19.5863V1.11848H19.58V1.13848H19.5738V1.15098H19.5613V1.17098H19.555V1.18348H19.5488V1.19598H19.5425V1.21598H19.5363V1.22848H19.53V1.23473H19.5238V1.24723H19.5113V1.26723H19.505V1.27348H19.4988V1.28598H19.4925V1.30598H19.4863V1.31223H19.48V1.32473H19.4738V1.33098H19.4675V1.35098H19.455V1.35723H19.4488V1.36973H19.4425V1.37598H19.4363V1.38848H19.43V1.40098C19.4238 1.40098 19.4238 1.40723 19.4238 1.40723V1.41348H19.4175L19.3975 1.44598C19.3975 1.44598 19.385 1.45848 19.385 1.46598C19.3788 1.46598 19.3788 1.47223 19.3788 1.47223V1.47848H19.3725V1.48473H19.3663V1.49723H19.3538V1.50348H19.3475V1.50973H19.3413V1.52848H19.335V1.53473H19.3288V1.54098H19.3225V1.55348H19.3163V1.54098H19.3038V1.54723H19.2975V1.55973H19.2913V1.57223H19.285V1.57848H19.2788V1.58473H19.2725V1.59098H19.2663V1.60348H19.2538V1.60973H19.2475V1.62223H19.2413V1.62848H19.235V1.63473H19.2288V1.65473H19.2225V1.66098H19.2163V1.66723H19.21V1.67348H19.2038V1.67973H19.1913V1.69223H19.185V1.69848H19.1788V1.70473H19.1725V1.71723H19.1663V1.72348H19.1538V1.72973H19.1475V1.73598H19.1413V1.74848H19.135V1.76098H19.1288V1.76723H19.1225V1.77348H19.11V1.77973H19.1038V1.78598H19.0975V1.79848H19.0913V1.80473H19.085V1.81723H19.0788V1.82348H19.0725V1.82973H19.0663V1.83598H19.06V1.84223H19.0475V1.84848C19.0413 1.84848 19.0413 1.85473 19.0413 1.85473L19.035 1.86098L19.0288 1.86723V1.87973H19.0225V1.88598H19.0163V1.89223H19.01V1.89848H19.0038L18.9913 1.91098V1.91723C18.9788 1.92348 18.9788 1.92973 18.965 1.94348C18.965 1.94348 18.9525 1.95598 18.945 1.95598C18.925 1.96848 18.9 1.99473 18.88 2.01473C18.8675 2.02098 18.8538 2.03473 18.8413 2.04098C18.815 2.06723 18.7888 2.08598 18.7625 2.10598C18.7238 2.14473 18.6838 2.17098 18.6388 2.20973H18.6325L18.3263 2.47723H18.32C18.04 2.72473 17.7075 3.04348 17.33 3.42098L17.2975 3.45348C15.0313 5.79723 11.4575 10.686 11.0863 18.5835C11.0475 19.2347 11.0538 19.8722 11.0925 20.491V20.5035C11.275 23.616 12.2513 26.2722 13.475 28.4335C13.9563 29.2935 14.4838 30.0747 15.0175 30.7772C16.8538 33.1997 18.7288 34.6385 19.2038 34.9897C19.94 36.6885 19.8738 39.6185 19.8738 39.6185L20.9475 39.976C20.9475 39.976 20.7263 37.1435 21.0325 35.7697C21.13 35.346 21.3513 34.9822 21.6125 34.6697C21.795 34.546 22.3163 34.1685 22.9413 33.596C22.9738 33.5635 22.9938 33.5372 23.02 33.5047C25.5525 31.141 30.2863 25.321 28.665 15.8422L28.6325 15.866Z" fill="#8B5201"/>
</svg>
