<svg width="40" height="40" viewBox="0 0 40 40" fill="none" xmlns="http://www.w3.org/2000/svg">
<g clip-path="url(#clip0_722_4)">
<path d="M35.9802 31.71L14.3131 37.0168C13.6511 37.1791 13.0167 36.705 13.1559 36.1518L20.8962 5.45396C21.041 4.87959 21.9992 4.78873 22.3015 5.32037L36.6334 30.5231C36.9037 30.9989 36.5953 31.5596 35.9801 31.71L35.9802 31.71ZM39.6957 30.4578L23.1015 1.27553C22.0076 -0.419083 19.4189 -0.357599 18.4076 1.06068L0.410194 25.2006C-0.147353 25.9533 -0.136315 26.8811 0.441893 27.624L9.23934 38.9099C10.1464 39.8054 10.9852 40.2279 12.4178 39.8769L37.9541 33.6224C39.6554 33.2005 40.4752 31.8394 39.6957 30.4579V30.4578Z" fill="#8B5201"/>
</g>
<defs>
<clipPath id="clip0_722_4">
<rect width="40" height="40" fill="white"/>
</clipPath>
</defs>
</svg>
